<svg xmlns="http://www.w3.org/2000/svg" viewBox="0 0 600 400" width="600" height="400">
  <!-- Fondo -->
  <rect width="600" height="400" rx="12" fill="#f8f9fa"/>

  <!-- Barra superior / navbar -->
  <rect x="0" y="0" width="600" height="44" rx="12" fill="#0d6efd"/>
  <rect x="0" y="30" width="600" height="14" fill="#0d6efd"/>
  <circle cx="24" cy="22" r="8" fill="white" opacity="0.3"/>
  <rect x="44" y="16" width="80" height="12" rx="3" fill="white" opacity="0.4"/>
  <rect x="420" y="16" width="60" height="12" rx="3" fill="white" opacity="0.3"/>
  <rect x="492" y="16" width="50" height="12" rx="3" fill="white" opacity="0.3"/>
  <circle cx="572" cy="22" r="10" fill="white" opacity="0.25"/>

  <!-- Sidebar -->
  <rect x="0" y="44" width="148" height="356" fill="#212529"/>
  <rect x="12" y="62" width="60" height="10" rx="3" fill="#6c757d"/>
  <rect x="12" y="84" width="124" height="32" rx="6" fill="#0d6efd"/>
  <rect x="48" y="95" width="70" height="10" rx="3" fill="white" opacity="0.9"/>
  <circle cx="28" cy="100" r="8" fill="white" opacity="0.5"/>
  <rect x="12" y="126" width="124" height="32" rx="6" fill="#2c3034"/>
  <rect x="48" y="137" width="70" height="10" rx="3" fill="#adb5bd"/>
  <circle cx="28" cy="142" r="8" fill="#6c757d"/>
  <rect x="12" y="168" width="124" height="32" rx="6" fill="#2c3034"/>
  <rect x="48" y="179" width="56" height="10" rx="3" fill="#adb5bd"/>
  <circle cx="28" cy="184" r="8" fill="#6c757d"/>
  <rect x="12" y="210" width="124" height="32" rx="6" fill="#2c3034"/>
  <rect x="48" y="221" width="80" height="10" rx="3" fill="#adb5bd"/>
  <circle cx="28" cy="226" r="8" fill="#6c757d"/>
  <rect x="12" y="252" width="124" height="32" rx="6" fill="#2c3034"/>
  <rect x="48" y="263" width="64" height="10" rx="3" fill="#adb5bd"/>
  <circle cx="28" cy="268" r="8" fill="#6c757d"/>

  <!-- Área de contenido -->
  <!-- Título de página -->
  <rect x="168" y="58" width="160" height="16" rx="4" fill="#212529" opacity="0.7"/>
  <rect x="168" y="82" width="240" height="10" rx="3" fill="#6c757d" opacity="0.5"/>

  <!-- Tarjetas KPI -->
  <rect x="168" y="106" width="100" height="64" rx="8" fill="white" stroke="#dee2e6" stroke-width="1"/>
  <rect x="176" y="116" width="50" height="8" rx="2" fill="#6c757d" opacity="0.6"/>
  <rect x="176" y="130" width="70" height="14" rx="3" fill="#0d6efd" opacity="0.8"/>
  <rect x="176" y="152" width="40" height="8" rx="2" fill="#198754" opacity="0.7"/>

  <rect x="280" y="106" width="100" height="64" rx="8" fill="white" stroke="#dee2e6" stroke-width="1"/>
  <rect x="288" y="116" width="50" height="8" rx="2" fill="#6c757d" opacity="0.6"/>
  <rect x="288" y="130" width="70" height="14" rx="3" fill="#198754" opacity="0.8"/>
  <rect x="288" y="152" width="40" height="8" rx="2" fill="#198754" opacity="0.7"/>

  <rect x="392" y="106" width="100" height="64" rx="8" fill="white" stroke="#dee2e6" stroke-width="1"/>
  <rect x="400" y="116" width="50" height="8" rx="2" fill="#6c757d" opacity="0.6"/>
  <rect x="400" y="130" width="70" height="14" rx="3" fill="#fd7e14" opacity="0.8"/>
  <rect x="400" y="152" width="40" height="8" rx="2" fill="#dc3545" opacity="0.7"/>

  <rect x="504" y="106" width="84" height="64" rx="8" fill="white" stroke="#dee2e6" stroke-width="1"/>
  <rect x="512" y="116" width="50" height="8" rx="2" fill="#6c757d" opacity="0.6"/>
  <rect x="512" y="130" width="56" height="14" rx="3" fill="#6f42c1" opacity="0.8"/>
  <rect x="512" y="152" width="40" height="8" rx="2" fill="#198754" opacity="0.7"/>

  <!-- Gráfico de barras -->
  <rect x="168" y="184" width="264" height="148" rx="8" fill="white" stroke="#dee2e6" stroke-width="1"/>
  <rect x="176" y="192" width="100" height="10" rx="3" fill="#212529" opacity="0.7"/>
  <!-- Barras del gráfico -->
  <rect x="188" y="290" width="18" height="30" rx="2" fill="#0d6efd" opacity="0.8"/>
  <rect x="214" y="270" width="18" height="50" rx="2" fill="#0d6efd" opacity="0.8"/>
  <rect x="240" y="260" width="18" height="60" rx="2" fill="#0d6efd" opacity="0.8"/>
  <rect x="266" y="250" width="18" height="70" rx="2" fill="#0d6efd"/>
  <rect x="292" y="240" width="18" height="80" rx="2" fill="#0d6efd"/>
  <rect x="318" y="255" width="18" height="65" rx="2" fill="#0d6efd" opacity="0.8"/>
  <rect x="344" y="245" width="18" height="75" rx="2" fill="#0d6efd"/>
  <rect x="370" y="230" width="18" height="90" rx="2" fill="#0d6efd"/>
  <!-- Línea eje X -->
  <line x1="180" y1="325" x2="420" y2="325" stroke="#dee2e6" stroke-width="1"/>
  <!-- Labels eje X -->
  <rect x="188" y="330" width="18" height="6" rx="2" fill="#adb5bd"/>
  <rect x="214" y="330" width="18" height="6" rx="2" fill="#adb5bd"/>
  <rect x="240" y="330" width="18" height="6" rx="2" fill="#adb5bd"/>
  <rect x="266" y="330" width="18" height="6" rx="2" fill="#adb5bd"/>
  <rect x="292" y="330" width="18" height="6" rx="2" fill="#adb5bd"/>
  <rect x="318" y="330" width="18" height="6" rx="2" fill="#adb5bd"/>
  <rect x="344" y="330" width="18" height="6" rx="2" fill="#adb5bd"/>
  <rect x="370" y="330" width="18" height="6" rx="2" fill="#adb5bd"/>

  <!-- Panel derecho: tabla -->
  <rect x="444" y="184" width="144" height="148" rx="8" fill="white" stroke="#dee2e6" stroke-width="1"/>
  <rect x="452" y="192" width="80" height="10" rx="3" fill="#212529" opacity="0.7"/>
  <!-- Filas tabla -->
  <rect x="452" y="212" width="128" height="1" fill="#dee2e6"/>
  <rect x="452" y="214" width="60" height="8" rx="2" fill="#6c757d" opacity="0.5"/>
  <rect x="524" y="214" width="36" height="8" rx="2" fill="#198754" opacity="0.6"/>
  <rect x="452" y="228" width="128" height="1" fill="#dee2e6"/>
  <rect x="452" y="230" width="72" height="8" rx="2" fill="#6c757d" opacity="0.5"/>
  <rect x="524" y="230" width="36" height="8" rx="2" fill="#fd7e14" opacity="0.6"/>
  <rect x="452" y="244" width="128" height="1" fill="#dee2e6"/>
  <rect x="452" y="246" width="52" height="8" rx="2" fill="#6c757d" opacity="0.5"/>
  <rect x="524" y="246" width="36" height="8" rx="2" fill="#0d6efd" opacity="0.6"/>
  <rect x="452" y="260" width="128" height="1" fill="#dee2e6"/>
  <rect x="452" y="262" width="66" height="8" rx="2" fill="#6c757d" opacity="0.5"/>
  <rect x="524" y="262" width="36" height="8" rx="2" fill="#dc3545" opacity="0.6"/>
  <rect x="452" y="276" width="128" height="1" fill="#dee2e6"/>
  <rect x="452" y="278" width="58" height="8" rx="2" fill="#6c757d" opacity="0.5"/>
  <rect x="524" y="278" width="36" height="8" rx="2" fill="#198754" opacity="0.6"/>
  <rect x="452" y="292" width="128" height="1" fill="#dee2e6"/>
  <rect x="452" y="294" width="70" height="8" rx="2" fill="#6c757d" opacity="0.5"/>
  <rect x="524" y="294" width="36" height="8" rx="2" fill="#198754" opacity="0.6"/>
  <rect x="452" y="308" width="128" height="1" fill="#dee2e6"/>
  <rect x="452" y="310" width="62" height="8" rx="2" fill="#6c757d" opacity="0.5"/>
  <rect x="524" y="310" width="36" height="8" rx="2" fill="#fd7e14" opacity="0.6"/>

  <!-- Footer -->
  <rect x="168" y="344" width="420" height="44" rx="8" fill="white" stroke="#dee2e6" stroke-width="1" opacity="0.7"/>
  <rect x="180" y="358" width="120" height="8" rx="3" fill="#adb5bd" opacity="0.7"/>
  <rect x="472" y="355" width="56" height="14" rx="4" fill="#0d6efd" opacity="0.7"/>
</svg>
